<?xml version="1.0" encoding="UTF-8" standalone="no"?>
<!DOCTYPE svg PUBLIC "-//W3C//DTD SVG 1.1//EN"
 "http://www.w3.org/Graphics/SVG/1.1/DTD/svg11.dtd">
<!-- Generated by graphviz version 2.40.1 (20161225.0304)
 -->
<!-- Title: undefined Pages: 1 -->
<svg width="377pt" height="315pt"
 viewBox="0.00 0.00 376.60 314.60" xmlns="http://www.w3.org/2000/svg" xmlns:xlink="http://www.w3.org/1999/xlink">
<g id="graph0" class="graph" transform="scale(1 1) rotate(0) translate(28.8 264.8)">
<title>undefined</title>
<polygon fill="#ffffff" stroke="transparent" points="-28.8,49.8 -28.8,-264.8 347.8,-264.8 347.8,49.8 -28.8,49.8"/>
<text text-anchor="start" x="93" y="12.6" font-family="Helvetica,sans-Serif" font-weight="bold" font-size="12.00" fill="#000000">db/development.sqlite3</text>
<!-- schema_migrations -->
<g id="node1" class="node">
<title>schema_migrations</title>
<path fill="none" stroke="#000000" d="M12.2381,-182.1409C12.2381,-182.1409 132.2381,-182.1409 132.2381,-182.1409 138.2381,-182.1409 144.2381,-188.1409 144.2381,-194.1409 144.2381,-194.1409 144.2381,-223.1409 144.2381,-223.1409 144.2381,-229.1409 138.2381,-235.1409 132.2381,-235.1409 132.2381,-235.1409 12.2381,-235.1409 12.2381,-235.1409 6.2381,-235.1409 .2381,-229.1409 .2381,-223.1409 .2381,-223.1409 .2381,-194.1409 .2381,-194.1409 .2381,-188.1409 6.2381,-182.1409 12.2381,-182.1409"/>
<text text-anchor="start" x="9.2381" y="-214.7409" font-family="Helvetica,sans-Serif" font-weight="bold" font-size="13.00" fill="#000000">schema_migrations</text>
<polyline fill="none" stroke="#000000" points=".2381,-205.1409 144.2381,-205.1409 "/>
<text text-anchor="start" x="7.2381" y="-191.0409" font-family="Helvetica,sans-Serif" font-size="12.00" fill="#000000">version* </text>
<text text-anchor="start" x="54.2381" y="-191.0409" font-family="Helvetica,sans-Serif" font-weight="bold" font-size="12.00" fill="#000000">varchar</text>
</g>
<!-- ar_internal_metadata -->
<g id="node2" class="node">
<title>ar_internal_metadata</title>
<path fill="none" stroke="#000000" d="M181.2381,-.6409C181.2381,-.6409 307.2381,-.6409 307.2381,-.6409 313.2381,-.6409 319.2381,-6.6409 319.2381,-12.6409 319.2381,-12.6409 319.2381,-92.6409 319.2381,-92.6409 319.2381,-98.6409 313.2381,-104.6409 307.2381,-104.6409 307.2381,-104.6409 181.2381,-104.6409 181.2381,-104.6409 175.2381,-104.6409 169.2381,-98.6409 169.2381,-92.6409 169.2381,-92.6409 169.2381,-12.6409 169.2381,-12.6409 169.2381,-6.6409 175.2381,-.6409 181.2381,-.6409"/>
<text text-anchor="start" x="176.2381" y="-84.2409" font-family="Helvetica,sans-Serif" font-weight="bold" font-size="13.00" fill="#000000">ar_internal_metadata</text>
<polyline fill="none" stroke="#000000" points="169.2381,-74.6409 319.2381,-74.6409 "/>
<text text-anchor="start" x="179.2381" y="-61.0409" font-family="Helvetica,sans-Serif" font-size="12.00" fill="#000000">key* </text>
<text text-anchor="start" x="206.2381" y="-61.0409" font-family="Helvetica,sans-Serif" font-weight="bold" font-size="12.00" fill="#000000">varchar</text>
<text text-anchor="start" x="179.2381" y="-44.0409" font-family="Helvetica,sans-Serif" font-size="12.00" fill="#000000">value </text>
<text text-anchor="start" x="212.2381" y="-44.0409" font-family="Helvetica,sans-Serif" font-weight="bold" font-size="12.00" fill="#000000">varchar</text>
<text text-anchor="start" x="179.2381" y="-27.0409" font-family="Helvetica,sans-Serif" font-size="12.00" fill="#000000">created_at </text>
<text text-anchor="start" x="239.2381" y="-27.0409" font-family="Helvetica,sans-Serif" font-weight="bold" font-size="12.00" fill="#000000">datetime</text>
<text text-anchor="start" x="179.2381" y="-10.0409" font-family="Helvetica,sans-Serif" font-size="12.00" fill="#000000">updated_at </text>
<text text-anchor="start" x="243.2381" y="-10.0409" font-family="Helvetica,sans-Serif" font-weight="bold" font-size="12.00" fill="#000000">datetime</text>
</g>
<!-- dogs -->
<g id="node3" class="node">
<title>dogs</title>
<path fill="none" stroke="#000000" d="M12.2381,-13.6409C12.2381,-13.6409 132.2381,-13.6409 132.2381,-13.6409 138.2381,-13.6409 144.2381,-19.6409 144.2381,-25.6409 144.2381,-25.6409 144.2381,-139.6409 144.2381,-139.6409 144.2381,-145.6409 138.2381,-151.6409 132.2381,-151.6409 132.2381,-151.6409 12.2381,-151.6409 12.2381,-151.6409 6.2381,-151.6409 .2381,-145.6409 .2381,-139.6409 .2381,-139.6409 .2381,-25.6409 .2381,-25.6409 .2381,-19.6409 6.2381,-13.6409 12.2381,-13.6409"/>
<text text-anchor="start" x="56.2381" y="-131.2409" font-family="Helvetica,sans-Serif" font-weight="bold" font-size="13.00" fill="#000000">dogs</text>
<polyline fill="none" stroke="#000000" points=".2381,-121.6409 144.2381,-121.6409 "/>
<text text-anchor="start" x="7.2381" y="-108.0409" font-family="Helvetica,sans-Serif" font-size="12.00" fill="#000000">id* </text>
<text text-anchor="start" x="25.2381" y="-108.0409" font-family="Helvetica,sans-Serif" font-weight="bold" font-size="12.00" fill="#000000">integer</text>
<text text-anchor="start" x="7.2381" y="-91.0409" font-family="Helvetica,sans-Serif" font-size="12.00" fill="#000000">name </text>
<text text-anchor="start" x="41.2381" y="-91.0409" font-family="Helvetica,sans-Serif" font-weight="bold" font-size="12.00" fill="#000000">varchar</text>
<text text-anchor="start" x="7.2381" y="-74.0409" font-family="Helvetica,sans-Serif" font-size="12.00" fill="#000000">color </text>
<text text-anchor="start" x="37.2381" y="-74.0409" font-family="Helvetica,sans-Serif" font-weight="bold" font-size="12.00" fill="#000000">varchar</text>
<text text-anchor="start" x="7.2381" y="-57.0409" font-family="Helvetica,sans-Serif" font-size="12.00" fill="#000000">age </text>
<text text-anchor="start" x="31.2381" y="-57.0409" font-family="Helvetica,sans-Serif" font-weight="bold" font-size="12.00" fill="#000000">integer</text>
<text text-anchor="start" x="7.2381" y="-40.0409" font-family="Helvetica,sans-Serif" font-size="12.00" fill="#000000">created_at </text>
<text text-anchor="start" x="67.2381" y="-40.0409" font-family="Helvetica,sans-Serif" font-weight="bold" font-size="12.00" fill="#000000">datetime</text>
<text text-anchor="start" x="7.2381" y="-23.0409" font-family="Helvetica,sans-Serif" font-size="12.00" fill="#000000">updated_at </text>
<text text-anchor="start" x="71.2381" y="-23.0409" font-family="Helvetica,sans-Serif" font-weight="bold" font-size="12.00" fill="#000000">datetime</text>
</g>
<!-- sqlite_sequence -->
<g id="node4" class="node">
<title>sqlite_sequence</title>
<path fill="none" stroke="#000000" d="M181.2381,-130.6409C181.2381,-130.6409 301.2381,-130.6409 301.2381,-130.6409 307.2381,-130.6409 313.2381,-136.6409 313.2381,-142.6409 313.2381,-142.6409 313.2381,-188.6409 313.2381,-188.6409 313.2381,-194.6409 307.2381,-200.6409 301.2381,-200.6409 301.2381,-200.6409 181.2381,-200.6409 181.2381,-200.6409 175.2381,-200.6409 169.2381,-194.6409 169.2381,-188.6409 169.2381,-188.6409 169.2381,-142.6409 169.2381,-142.6409 169.2381,-136.6409 175.2381,-130.6409 181.2381,-130.6409"/>
<text text-anchor="start" x="188.2381" y="-180.2409" font-family="Helvetica,sans-Serif" font-weight="bold" font-size="13.00" fill="#000000">sqlite_sequence</text>
<polyline fill="none" stroke="#000000" points="169.2381,-170.6409 313.2381,-170.6409 "/>
<text text-anchor="start" x="176.2381" y="-157.0409" font-family="Helvetica,sans-Serif" font-size="12.00" fill="#000000">name </text>
<text text-anchor="start" x="210.2381" y="-157.0409" font-family="Helvetica,sans-Serif" font-weight="bold" font-size="12.00" fill="#000000"> </text>
<text text-anchor="start" x="176.2381" y="-140.0409" font-family="Helvetica,sans-Serif" font-size="12.00" fill="#000000">seq </text>
<text text-anchor="start" x="199.2381" y="-140.0409" font-family="Helvetica,sans-Serif" font-weight="bold" font-size="12.00" fill="#000000"> </text>
</g>
</g>
</svg>
